<svg width="245" height="21" viewBox="0 0 245 21" fill="none" xmlns="http://www.w3.org/2000/svg">
<path d="M12.71 20.491L13.795 15.283H9.238C8.525 15.283 8.246 15.19 8.246 14.756C8.246 14.632 8.277 14.477 8.308 14.291L9.331 9.548H13.206L14.229 4.619H10.354L11.346 0H3.503L0.186 15.593C0.062 16.182 0 16.74 0 17.205C0 19.809 2.046 20.491 7.006 20.491H12.71Z" fill="white"/>
<path d="M37.5771 20.491L38.5691 15.686H25.3011C23.7511 15.686 23.2241 15.593 23.2241 14.911C23.2241 14.787 23.2551 14.632 23.2861 14.446L23.3481 14.105H34.9111C38.7861 14.105 40.0571 13.33 40.6771 10.323L40.9871 8.835C41.0801 8.37 41.1421 7.967 41.1421 7.564C41.1421 5.58 39.7161 4.619 36.3061 4.619H24.9291C20.0931 4.619 17.3341 6.045 16.6211 9.486L15.4741 14.88C15.3191 15.531 15.2571 16.089 15.2571 16.616C15.2571 19.499 17.4271 20.491 22.1081 20.491H37.5771ZM24.0301 11.005L24.1851 10.199C24.2781 9.734 24.6191 9.486 25.1461 9.486H32.0591C32.7721 9.486 33.1131 9.61 33.1131 9.982C33.1131 10.044 33.0821 10.106 33.0821 10.168L33.0511 10.354C32.9581 10.85 32.5861 11.005 31.7491 11.005H24.0301Z" fill="white"/>
<path d="M62.1097 20.491L63.1947 15.283H50.9187C50.2367 15.283 50.0197 15.004 50.0197 14.601C50.0197 14.508 50.0197 14.415 50.0507 14.291L50.7637 10.881C50.8877 10.292 51.2287 9.858 51.9727 9.858H64.3417L65.4577 4.619H52.0967C46.2377 4.619 44.0987 5.642 43.2617 9.517L41.9597 15.593C41.8357 16.213 41.7737 16.74 41.7737 17.236C41.7737 19.84 43.7887 20.491 48.7487 20.491H62.1097Z" fill="white"/>
<path d="M83.0548 9.858C83.7368 9.858 83.9848 10.106 83.9848 10.509C83.9848 10.633 83.9848 10.757 83.9538 10.881L81.9388 20.491H89.7508L92.0758 9.517C92.1998 8.959 92.2618 8.494 92.2618 8.029C92.2618 5.332 89.9988 4.619 85.2248 4.619H80.5128C77.8468 4.619 76.6688 5.084 75.7388 5.766L76.9788 0H69.1358L64.7958 20.491H72.6388L74.6538 10.881C74.7778 10.23 75.1188 9.858 75.9868 9.858H83.0548Z" fill="white"/>
<path d="M110.999 12.772L112.084 7.688H103.218L103.745 5.208H119.307L120.423 0H96.9874L92.6474 20.491H100.521L102.133 12.772H110.999Z" fill="white"/>
<path d="M141.761 20.491L142.846 15.283H127.036L127.594 12.679H135.933L136.987 7.781H128.648L129.175 5.208H144.985L146.101 0H122.417L118.077 20.491H141.761Z" fill="white"/>
<path d="M161.934 20.491C166.739 20.491 168.661 18.941 169.374 15.593L170.025 12.555C170.118 12.09 170.18 11.625 170.18 11.222C170.18 8.959 168.63 7.688 165.096 7.688H154.897C154.246 7.688 153.967 7.502 153.967 7.068C153.967 6.944 153.998 6.789 154.029 6.634L154.091 6.324C154.246 5.58 154.587 5.208 155.424 5.208H170.18L171.296 0H154.866C149.41 0 147.829 1.333 147.085 4.836L146.31 8.525C146.217 8.866 146.186 9.207 146.186 9.517C146.186 11.594 147.891 12.803 151.301 12.803H161.655C162.244 12.803 162.492 12.989 162.492 13.485C162.492 13.578 162.492 13.702 162.461 13.857L162.399 14.167C162.213 14.973 161.841 15.283 161.128 15.283H145.039L143.954 20.491H161.934Z" fill="white"/>
<path d="M183.895 20.491L187.119 5.208H194.528L195.644 0H172.952L171.836 5.208H179.276L176.052 20.491H183.895Z" fill="white"/>
<path d="M228.492 20.491L229.577 15.283H212.403L212.713 13.826C212.868 13.144 213.333 12.803 214.077 12.803H222.571C228.368 12.803 230.414 11.222 231.096 8.153L231.747 5.146C231.902 4.464 231.964 3.844 231.964 3.317C231.964 0.526999 229.825 0 224.989 0H215.782C209.892 0 207.753 0.743999 206.854 4.836L206.513 6.386H214.294L214.325 6.2C214.511 5.425 215.1 5.146 216.867 5.146H222.447C223.284 5.146 223.687 5.363 223.687 5.921C223.687 6.014 223.687 6.138 223.656 6.262L223.594 6.572C223.408 7.409 222.912 7.719 221.889 7.719H212.899C208.28 7.719 205.862 9.393 205.211 12.493L203.537 20.491H228.492Z" fill="white"/>
<path d="M240.009 20.491L244.349 0H234.677L233.561 5.208H235.421L232.197 20.491H240.009Z" fill="white"/>
</svg>
