<svg width="44" height="45" viewBox="0 0 44 45" fill="none" xmlns="http://www.w3.org/2000/svg">
<path fill-rule="evenodd" clip-rule="evenodd" d="M4.88878 7.47375H39.111C40.461 7.47375 41.5554 8.57324 41.5554 9.92952V22.6626C40.865 21.7945 40.0395 21.044 39.111 20.4402V9.92952H4.88878V34.4871H24.9454L25.0554 34.6836L23.9188 36.0834L23.2221 36.9429H4.88878C3.53875 36.9429 2.44434 35.8434 2.44434 34.4871V9.92952C2.44434 8.57324 3.53875 7.47375 4.88878 7.47375ZM8.55545 14.841H29.3332V16.7966H8.55545V14.841ZM21.9999 19.7526H8.55545V21.7081H21.9999V19.7526ZM33.556 21.2628C30.3575 21.2398 27.4711 23.1876 26.283 26.1716C25.0942 29.1575 25.8489 32.5702 28.1843 34.7695L25.8132 37.6796L26.9132 42.1123L31.3866 36.6359C32.8026 37.0565 34.3095 37.0565 35.7255 36.6359L40.1988 42.1123L41.2988 37.6796L38.9277 34.7695C41.2632 32.5702 42.0178 29.1575 40.829 26.1716C39.6409 23.1876 36.7546 21.2398 33.556 21.2628ZM28.3679 29.036C28.3411 31.949 30.6627 34.3361 33.5621 34.3766C36.489 34.3903 38.8763 32.0248 38.9032 29.0844C38.9029 26.1713 36.5592 23.8062 33.6595 23.7929C30.7599 23.7795 28.3947 26.123 28.3679 29.036ZM8.55545 28.3477H20.7777V30.3033H8.55545V28.3477Z" fill="white"/>
</svg>
