<svg width="64" height="64" viewBox="0 0 64 64" fill="none" xmlns="http://www.w3.org/2000/svg">
<circle cx="32" cy="32" r="31.5" stroke="#FFFFFE"/>
<path fill-rule="evenodd" clip-rule="evenodd" d="M38.045 19.9616C38.5494 19.4572 39.3673 19.4572 39.8717 19.9616L45.0384 25.1283C45.5428 25.6327 45.5428 26.4506 45.0384 26.955L28.2467 43.7467C28.0044 43.9889 27.6759 44.125 27.3333 44.125H22.1667C21.4533 44.125 20.875 43.5467 20.875 42.8333V37.6667C20.875 37.3241 21.0111 36.9955 21.2533 36.7533L34.1697 23.8369L38.045 19.9616ZM35.0833 26.5767L23.4583 38.2017V41.5417H26.7983L38.4233 29.9167L35.0833 26.5767ZM40.25 28.09L36.91 24.75L38.9583 22.7017L42.2983 26.0417L40.25 28.09Z" fill="#999999"/>
</svg>
