<svg width="26" height="38" viewBox="0 0 26 38" fill="none" xmlns="http://www.w3.org/2000/svg">
<path d="M7.50008 35.5C7.50008 36.5084 8.32508 37.3334 9.33342 37.3334H16.6667C17.6751 37.3334 18.5001 36.5084 18.5001 35.5V33.6667H7.50008V35.5ZM13.0001 0.666687C5.92342 0.666687 0.166748 6.42335 0.166748 13.5C0.166748 17.8634 2.34842 21.695 5.66675 24.0234V28.1667C5.66675 29.175 6.49175 30 7.50008 30H18.5001C19.5084 30 20.3334 29.175 20.3334 28.1667V24.0234C23.6518 21.695 25.8334 17.8634 25.8334 13.5C25.8334 6.42335 20.0768 0.666687 13.0001 0.666687ZM18.2251 21.0167L16.6667 22.1167V26.3334H9.33342V22.1167L7.77508 21.0167C5.30008 19.2934 3.83342 16.4884 3.83342 13.5C3.83342 8.44002 7.94008 4.33335 13.0001 4.33335C18.0601 4.33335 22.1668 8.44002 22.1668 13.5C22.1668 16.4884 20.7001 19.2934 18.2251 21.0167Z" fill="white"/>
</svg>
