<svg width="35" height="33" viewBox="0 0 35 33" fill="none" xmlns="http://www.w3.org/2000/svg">
<path d="M16.3651 0.848196C17.0124 0.272851 17.9878 0.272851 18.6351 0.848196L34.0101 14.5149C34.7152 15.1417 34.7787 16.2215 34.1519 16.9266C33.5251 17.6318 32.4453 17.6953 31.7401 17.0685L31.1668 16.5588V29.4584C31.1668 31.3453 29.6371 32.875 27.7501 32.875H7.2501C5.36313 32.875 3.83343 31.3453 3.83343 29.4584V16.5588L3.26005 17.0685C2.55488 17.6953 1.47509 17.6318 0.848275 16.9266C0.221457 16.2215 0.284974 15.1417 0.990145 14.5149L16.3651 0.848196ZM7.2501 13.5218V29.4584H12.3751V20.9167C12.3751 19.9732 13.1399 19.2084 14.0834 19.2084H20.9168C21.8603 19.2084 22.6251 19.9732 22.6251 20.9167V29.4584H27.7501V13.5218L17.5001 4.41069L7.2501 13.5218ZM19.2084 29.4584V22.625H15.7918V29.4584H19.2084Z" fill="#FFFCFC"/>
</svg>
