<svg width="31" height="35" viewBox="0 0 31 35" fill="none" xmlns="http://www.w3.org/2000/svg">
<path d="M15.5 3.83335C11.7261 3.83335 8.66667 6.89274 8.66667 10.6667C8.66667 14.4406 11.7261 17.5 15.5 17.5C19.2739 17.5 22.3333 14.4406 22.3333 10.6667C22.3333 6.89274 19.2739 3.83335 15.5 3.83335ZM5.25 10.6667C5.25 5.00577 9.83908 0.416687 15.5 0.416687C21.1609 0.416687 25.75 5.00577 25.75 10.6667C25.75 16.3276 21.1609 20.9167 15.5 20.9167C9.83908 20.9167 5.25 16.3276 5.25 10.6667ZM8.66667 27.75C5.83621 27.75 3.54167 30.0446 3.54167 32.875C3.54167 33.8185 2.77682 34.5834 1.83333 34.5834C0.889847 34.5834 0.125 33.8185 0.125 32.875C0.125 28.1576 3.94924 24.3334 8.66667 24.3334H22.3333C27.0508 24.3334 30.875 28.1576 30.875 32.875C30.875 33.8185 30.1102 34.5834 29.1667 34.5834C28.2232 34.5834 27.4583 33.8185 27.4583 32.875C27.4583 30.0446 25.1638 27.75 22.3333 27.75H8.66667Z" fill="white"/>
</svg>
