<svg width="43" height="44" viewBox="0 0 43 44" fill="none" xmlns="http://www.w3.org/2000/svg">
<path fill-rule="evenodd" clip-rule="evenodd" d="M23.4828 10.0236C25.4199 11.4485 27.2448 13.0211 28.9415 14.7275C32.7908 18.4457 35.8397 22.9179 37.8998 27.8672C39.6556 32.4751 39.4287 36.2191 37.2667 38.391C36.9962 38.6489 36.7001 38.8781 36.3828 39.075C36.3394 40.349 35.4331 41.4274 34.1902 41.684C32.9473 41.9405 31.6912 41.3086 31.1512 40.155C29.6566 39.9913 28.1905 39.6281 26.7915 39.075C24.8884 38.2956 23.0678 37.3268 21.3567 36.1831C19.6297 37.3011 17.7974 38.2456 15.8862 39.003C14.1213 39.734 12.24 40.1405 10.332 40.203C8.51523 40.2925 6.73984 39.6388 5.41091 38.391C3.24896 36.2671 3.02202 32.4751 4.77785 27.8672C5.51927 25.9459 6.45167 24.1047 7.56091 22.3714C7.09507 21.6514 6.67702 20.9194 6.29479 20.1874C5.30403 20.0954 4.44205 19.4679 4.04651 18.5507C3.65096 17.6335 3.78481 16.5726 4.39563 15.7835C3.08174 11.6796 3.40424 8.35565 5.38702 6.35169C7.50118 4.17974 11.2637 3.96374 15.8623 5.71571C17.7754 6.48837 19.6078 7.44902 21.3328 8.58365C23.0544 7.46344 24.883 6.51877 26.7915 5.76371C27.2573 5.58371 27.6992 5.45171 28.1412 5.31972C28.3726 4.16089 29.3156 3.28054 30.483 3.1336C31.6503 2.98667 32.7804 3.60608 33.2892 4.67173C34.7764 4.75868 36.1851 5.37068 37.2667 6.39969C39.4287 8.53565 39.6556 12.3156 37.8998 16.9355C37.7767 17.2799 37.6277 17.6244 37.4767 17.9737L37.4766 17.974L37.4763 17.9746C37.4223 18.0995 37.368 18.2251 37.3145 18.3514C36.8248 17.5235 36.2873 16.7315 35.702 15.9515C37.0398 12.3636 37.004 9.48363 35.5826 8.05566C34.947 7.47899 34.1422 7.12526 33.2892 7.04768C32.8855 7.88645 32.0847 8.46116 31.1639 8.57283C30.2432 8.68451 29.3292 8.3178 28.7384 7.59967C28.3801 7.70767 28.0217 7.81566 27.6395 7.95966C26.1982 8.528 24.8076 9.21848 23.4828 10.0236ZM7.07118 36.687C8.50452 38.139 11.4309 38.163 15.0142 36.783C19.6235 34.8624 23.7937 32.0163 27.2692 28.4192C29.1018 26.5702 30.7685 24.5625 32.2501 22.4193C30.7722 20.2734 29.1052 18.2653 27.2692 16.4195C25.4482 14.5807 23.4697 12.9062 21.3567 11.4156C19.2209 12.9006 17.2222 14.5753 15.3845 16.4195C14.6798 17.1275 14.0228 17.8474 13.3778 18.5794C12.9417 17.8607 12.543 17.1197 12.1834 16.3595C12.6851 15.8075 13.1987 15.2555 13.7242 14.7275C15.4209 13.0211 17.2458 11.4484 19.1828 10.0236C17.858 9.21847 16.4675 8.528 15.0262 7.95966C13.5332 7.34705 11.9438 7.00575 10.332 6.95168C9.14563 6.86803 7.97538 7.26568 7.08313 8.05565C5.82896 9.31563 5.67368 11.7036 6.56952 14.7035C7.66952 14.6977 8.66595 15.3545 9.09864 16.3705C9.53133 17.3865 9.31608 18.5641 8.55229 19.3594C10.4126 22.6525 12.7201 25.6694 15.4084 28.3232C15.9347 28.8991 16.4757 29.3785 17.02 29.8606L17.02 29.8606L17.02 29.8607C17.1675 29.9913 17.3152 30.1222 17.4628 30.2552C16.7223 30.7272 15.9937 31.1472 15.277 31.5152C14.7515 31.0352 14.2259 30.5312 13.7123 30.0152C12.0177 28.3113 10.4526 26.4822 9.03007 24.5433C8.23229 25.8744 7.54898 27.2714 6.98757 28.7192C5.60202 32.3431 5.63785 35.2351 7.07118 36.687ZM35.5826 36.6751L35.3915 36.8311C34.7559 36.2898 33.908 36.0722 33.0919 36.2408C32.2758 36.4095 31.5822 36.9457 31.2109 37.6951C29.9831 37.5366 28.7795 37.2263 27.6276 36.7711C26.1842 36.2075 24.7932 35.5168 23.4709 34.7071C25.408 33.2823 27.2329 31.7097 28.9295 30.0032C30.6307 28.3055 32.1963 26.4759 33.6117 24.5313C34.4131 25.8623 35.1004 27.2593 35.6662 28.7072C37.0278 32.3432 37.0279 35.2471 35.5826 36.6751ZM24.8526 23.0379C24.8526 25.2249 23.0878 26.9978 20.9109 26.9978C18.734 26.9978 16.9692 25.2249 16.9692 23.0379C16.9692 20.8509 18.734 19.078 20.9109 19.078C23.0878 19.078 24.8526 20.8509 24.8526 23.0379Z" fill="white"/>
</svg>
